<svg xmlns="http://www.w3.org/2000/svg" version="1.1" xmlns:xlink="http://www.w3.org/1999/xlink" xmlns:svgjs="http://svgjs.dev/svgjs" viewBox="0 0 15.252168456791068 5.0953231796832466"><g transform="matrix(1,0,0,1,4.230647706832242,1.8907810273416235)"><g><path d=" M 0.20544 0.29451749999999993 L 0.20544 0.5745899999999999 L 0.0489525 0.5745899999999999 L 0.0489525 0.004814999999999903 L 0.17093250000000001 0.004814999999999903 L 0.39964500000000003 0.29451749999999993 L 0.39964500000000003 0.004814999999999903 L 0.5561325 0.004814999999999903 L 0.5561325 0.5745899999999999 L 0.43174500000000005 0.5745899999999999 L 0.20544 0.29451749999999993 M 0.7936952270507813 0.004814999999999903 L 0.9686402270507812 0.004814999999999903 L 1.1500052270507812 0.5745899999999999 L 0.9911102270507812 0.5745899999999999 L 0.9566027270507813 0.4630424999999999 L 0.8049302270507812 0.4630424999999999 L 0.7712252270507812 0.5745899999999999 L 0.6115277270507813 0.5745899999999999 L 0.7936952270507813 0.004814999999999903 M 0.9317252270507812 0.3587174999999999 L 0.8811677270507813 0.1580924999999999 L 0.8282027270507812 0.3587174999999999 L 0.9317252270507812 0.3587174999999999 M 1.2053714575195311 0.5745899999999999 L 1.2053714575195311 0.004814999999999903 L 1.4244539575195312 0.004814999999999903 Q 1.5191489575195312 0.004814999999999903 1.5829477075195313 0.04293374999999988 Q 1.6467464575195312 0.08105249999999992 1.6792477075195311 0.14565374999999992 Q 1.7117489575195313 0.21025499999999991 1.7117489575195313 0.28889999999999993 Q 1.7117489575195313 0.37556999999999996 1.6760377075195312 0.43976999999999994 Q 1.640326457519531 0.5039699999999999 1.5757252075195312 0.53928 Q 1.5111239575195312 0.5745899999999999 1.4244539575195312 0.5745899999999999 L 1.2053714575195311 0.5745899999999999 M 1.5528539575195313 0.28889999999999993 Q 1.5528539575195313 0.24476249999999994 1.5376064575195312 0.21145874999999992 Q 1.5223589575195313 0.1781549999999999 1.4934689575195312 0.15969749999999994 Q 1.4645789575195312 0.14123999999999992 1.4244539575195312 0.14123999999999992 L 1.3618589575195312 0.14123999999999992 L 1.3618589575195312 0.4381649999999999 L 1.4244539575195312 0.4381649999999999 Q 1.4653814575195312 0.4381649999999999 1.4938702075195311 0.4189049999999999 Q 1.5223589575195313 0.3996449999999999 1.5376064575195312 0.3655387499999999 Q 1.5528539575195313 0.3314324999999999 1.5528539575195313 0.28889999999999993 M 1.787989200439453 0.5745899999999999 L 1.787989200439453 0.004814999999999903 L 1.9444767004394532 0.004814999999999903 L 1.9444767004394532 0.5745899999999999 L 1.787989200439453 0.5745899999999999 M 2.346499420166016 0.004814999999999903 L 2.5214444201660156 0.004814999999999903 L 2.7028094201660156 0.5745899999999999 L 2.5439144201660158 0.5745899999999999 L 2.5094069201660156 0.4630424999999999 L 2.3577344201660155 0.4630424999999999 L 2.3240294201660157 0.5745899999999999 L 2.1643319201660156 0.5745899999999999 L 2.346499420166016 0.004814999999999903 M 2.4845294201660155 0.3587174999999999 L 2.433971920166016 0.1580924999999999 L 2.3810069201660156 0.3587174999999999 L 2.4845294201660155 0.3587174999999999 M 3.0968341772460937 0.19099499999999991 Q 3.0968341772460937 0.19099499999999991 3.0831916772460937 0.1829699999999999 Q 3.0695491772460937 0.1749449999999999 3.047079177246094 0.16491374999999991 Q 3.0246091772460937 0.15488249999999992 2.998126677246094 0.14685749999999992 Q 2.9716441772460938 0.13883249999999991 2.945964177246094 0.13883249999999991 Q 2.9259016772460935 0.13883249999999991 2.9130616772460938 0.1452524999999999 Q 2.9002216772460936 0.15167249999999993 2.9002216772460936 0.1669199999999999 Q 2.9002216772460936 0.1813649999999999 2.9130616772460938 0.19019249999999993 Q 2.9259016772460935 0.19901999999999992 2.949575427246094 0.20624249999999994 Q 2.973249177246094 0.2134649999999999 3.006151677246094 0.22389749999999992 Q 3.059116677246094 0.23994749999999992 3.0976366772460935 0.2608124999999999 Q 3.1361566772460936 0.2816774999999999 3.1570216772460937 0.3141787499999999 Q 3.177886677246094 0.34667999999999993 3.177886677246094 0.40044749999999996 Q 3.177886677246094 0.4518074999999999 3.1594291772460936 0.48671624999999996 Q 3.140971677246094 0.5216249999999999 3.109674177246094 0.5424899999999999 Q 3.078376677246094 0.5633549999999999 3.0398566772460938 0.57258375 Q 3.0013366772460937 0.5818125 2.9612116772460935 0.5818125 Q 2.920284177246094 0.5818125 2.875745427246094 0.57338625 Q 2.8312066772460938 0.5649599999999999 2.7894766772460935 0.55011375 Q 2.7477466772460937 0.5352674999999999 2.7132391772460935 0.5152049999999999 L 2.7806491772460937 0.3779774999999999 Q 2.7806491772460937 0.3779774999999999 2.7966991772460936 0.3876074999999999 Q 2.8127491772460935 0.3972374999999999 2.8392316772460937 0.40927499999999994 Q 2.865714177246094 0.4213124999999999 2.8982154272460936 0.4309424999999999 Q 2.9307166772460937 0.4405724999999999 2.963619177246094 0.4405724999999999 Q 2.9892991772460937 0.4405724999999999 2.9993304272460937 0.4337512499999999 Q 3.0093616772460936 0.4269299999999999 3.0093616772460936 0.4156949999999999 Q 3.0093616772460936 0.39884249999999993 2.9917066772460936 0.3896137499999999 Q 2.9740516772460937 0.3803849999999999 2.945562927246094 0.3719587499999999 Q 2.9170741772460937 0.3635324999999999 2.8825666772460936 0.35229749999999993 Q 2.832811677246094 0.3354449999999999 2.8007116772460936 0.3141787499999999 Q 2.768611677246094 0.2929124999999999 2.7533641772460937 0.2636212499999999 Q 2.7381166772460936 0.23432999999999993 2.7381166772460936 0.19259999999999994 Q 2.7381166772460936 0.1292024999999999 2.7678091772460935 0.08666999999999991 Q 2.797501677246094 0.04413749999999994 2.8460529272460935 0.02206874999999986 Q 2.8946041772460935 -1.1102230246251565e-16 2.9507791772460936 -1.1102230246251565e-16 Q 2.992509177246094 -1.1102230246251565e-16 3.031430427246094 0.010031249999999936 Q 3.0703516772460935 0.020062499999999872 3.1044579272460937 0.03450749999999991 Q 3.138564177246094 0.048952499999999954 3.164244177246094 0.06179249999999992 L 3.0968341772460937 0.19099499999999991 M 3.698712703857422 0.14123999999999992 L 3.535002703857422 0.14123999999999992 L 3.535002703857422 0.5745899999999999 L 3.3785152038574218 0.5745899999999999 L 3.3785152038574218 0.14123999999999992 L 3.214002703857422 0.14123999999999992 L 3.214002703857422 0.004814999999999903 L 3.698712703857422 0.004814999999999903 L 3.698712703857422 0.14123999999999992 M 3.763734012451172 0.5745899999999999 L 3.763734012451172 0.004814999999999903 L 4.025349012451172 0.004814999999999903 Q 4.067079012451172 0.004814999999999903 4.102389012451172 0.02166749999999995 Q 4.137699012451172 0.03851999999999989 4.1633790124511725 0.06700874999999995 Q 4.189059012451172 0.0954974999999999 4.203102762451172 0.1308074999999999 Q 4.217146512451172 0.16611749999999992 4.217146512451172 0.2022299999999999 Q 4.217146512451172 0.2351324999999999 4.207516512451172 0.2656274999999999 Q 4.197886512451172 0.2961224999999999 4.179429012451172 0.3214012499999999 Q 4.160971512451172 0.34667999999999993 4.135291512451172 0.3651374999999999 L 4.255666512451172 0.5745899999999999 L 4.083931512451172 0.5745899999999999 L 3.983619012451172 0.3996449999999999 L 3.920221512451172 0.3996449999999999 L 3.920221512451172 0.5745899999999999 L 3.763734012451172 0.5745899999999999 M 3.920221512451172 0.2632199999999999 L 4.0189290124511725 0.2632199999999999 Q 4.028559012451172 0.2632199999999999 4.037386512451172 0.25599749999999993 Q 4.046214012451172 0.2487749999999999 4.0522327624511725 0.2351324999999999 Q 4.058251512451172 0.2214899999999999 4.058251512451172 0.2022299999999999 Q 4.058251512451172 0.18216749999999993 4.051430262451172 0.1689262499999999 Q 4.044609012451172 0.1556849999999999 4.034577762451172 0.1484624999999999 Q 4.024546512451172 0.14123999999999992 4.0149165124511725 0.14123999999999992 L 3.920221512451172 0.14123999999999992 L 3.920221512451172 0.2632199999999999 M 4.5630365515136715 0.579405 Q 4.498034051513672 0.579405 4.445069051513672 0.55492875 Q 4.392104051513672 0.5304524999999999 4.353985301513672 0.4891237499999999 Q 4.315866551513672 0.44779499999999994 4.295402801513672 0.39603374999999996 Q 4.274939051513672 0.3442724999999999 4.274939051513672 0.28889999999999993 Q 4.274939051513672 0.23192249999999992 4.296606551513672 0.1805624999999999 Q 4.318274051513672 0.1292024999999999 4.357195301513672 0.0886762499999999 Q 4.396116551513672 0.048149999999999915 4.449482801513672 0.024877499999999886 Q 4.502849051513672 0.0016049999999998565 4.566246551513672 0.0016049999999998565 Q 4.631249051513672 0.0016049999999998565 4.684214051513672 0.026081249999999945 Q 4.737179051513672 0.05055749999999992 4.774896551513672 0.09228749999999991 Q 4.8126140515136715 0.1340174999999999 4.833077801513672 0.18577874999999994 Q 4.853541551513672 0.23753999999999992 4.853541551513672 0.2921099999999999 Q 4.853541551513672 0.34828499999999996 4.832275301513672 0.3996449999999999 Q 4.811009051513672 0.45100499999999993 4.772087801513672 0.4915312499999999 Q 4.733166551513672 0.5320575 4.6802015515136715 0.5557312499999999 Q 4.627236551513672 0.579405 4.5630365515136715 0.579405 M 4.433834051513672 0.2905049999999999 Q 4.433834051513672 0.31939499999999993 4.4418590515136716 0.3462787499999999 Q 4.4498840515136715 0.37316249999999995 4.465934051513672 0.3944287499999999 Q 4.481984051513672 0.4156949999999999 4.5064603015136715 0.4281337499999999 Q 4.530936551513672 0.4405724999999999 4.564641551513672 0.4405724999999999 Q 4.598346551513671 0.4405724999999999 4.623224051513672 0.42773249999999996 Q 4.648101551513672 0.4148924999999999 4.663750301513672 0.3928237499999999 Q 4.679399051513672 0.37075499999999995 4.687022801513672 0.34387124999999996 Q 4.694646551513672 0.3169874999999999 4.694646551513672 0.28889999999999993 Q 4.694646551513672 0.2600099999999999 4.686621551513672 0.2335274999999999 Q 4.678596551513672 0.20704499999999992 4.662546551513672 0.18577874999999994 Q 4.646496551513672 0.1645124999999999 4.6216190515136715 0.15247499999999992 Q 4.596741551513672 0.14043749999999994 4.563839051513672 0.14043749999999994 Q 4.530134051513672 0.14043749999999994 4.505657801513672 0.1532774999999999 Q 4.4811815515136715 0.16611749999999992 4.465131551513672 0.1873837499999999 Q 4.449081551513672 0.2086499999999999 4.441457801513672 0.23553374999999993 Q 4.433834051513672 0.2624174999999999 4.433834051513672 0.2905049999999999 M 4.928185806884766 0.5745899999999999 L 4.928185806884766 0.004814999999999903 L 5.084673306884766 0.004814999999999903 L 5.084673306884766 0.4381649999999999 L 5.343078306884766 0.4381649999999999 L 5.343078306884766 0.5745899999999999 L 4.928185806884766 0.5745899999999999 M 5.655290775146484 0.579405 Q 5.590288275146484 0.579405 5.537323275146484 0.55492875 Q 5.4843582751464846 0.5304524999999999 5.446239525146484 0.4891237499999999 Q 5.408120775146484 0.44779499999999994 5.387657025146484 0.39603374999999996 Q 5.367193275146485 0.3442724999999999 5.367193275146485 0.28889999999999993 Q 5.367193275146485 0.23192249999999992 5.388860775146484 0.1805624999999999 Q 5.4105282751464845 0.1292024999999999 5.449449525146484 0.0886762499999999 Q 5.4883707751464845 0.048149999999999915 5.541737025146484 0.024877499999999886 Q 5.595103275146484 0.0016049999999998565 5.658500775146484 0.0016049999999998565 Q 5.723503275146484 0.0016049999999998565 5.776468275146485 0.026081249999999945 Q 5.829433275146484 0.05055749999999992 5.867150775146484 0.09228749999999991 Q 5.904868275146484 0.1340174999999999 5.925332025146484 0.18577874999999994 Q 5.945795775146484 0.23753999999999992 5.945795775146484 0.2921099999999999 Q 5.945795775146484 0.34828499999999996 5.924529525146484 0.3996449999999999 Q 5.903263275146484 0.45100499999999993 5.864342025146485 0.4915312499999999 Q 5.825420775146484 0.5320575 5.772455775146484 0.5557312499999999 Q 5.719490775146484 0.579405 5.655290775146484 0.579405 M 5.526088275146484 0.2905049999999999 Q 5.526088275146484 0.31939499999999993 5.534113275146484 0.3462787499999999 Q 5.542138275146484 0.37316249999999995 5.558188275146485 0.3944287499999999 Q 5.5742382751464845 0.4156949999999999 5.598714525146484 0.4281337499999999 Q 5.623190775146484 0.4405724999999999 5.656895775146484 0.4405724999999999 Q 5.690600775146484 0.4405724999999999 5.715478275146484 0.42773249999999996 Q 5.740355775146484 0.4148924999999999 5.756004525146484 0.3928237499999999 Q 5.771653275146484 0.37075499999999995 5.7792770251464844 0.34387124999999996 Q 5.786900775146484 0.3169874999999999 5.786900775146484 0.28889999999999993 Q 5.786900775146484 0.2600099999999999 5.778875775146484 0.2335274999999999 Q 5.770850775146484 0.20704499999999992 5.754800775146484 0.18577874999999994 Q 5.738750775146484 0.1645124999999999 5.713873275146484 0.15247499999999992 Q 5.688995775146484 0.14043749999999994 5.6560932751464845 0.14043749999999994 Q 5.622388275146484 0.14043749999999994 5.597912025146484 0.1532774999999999 Q 5.573435775146484 0.16611749999999992 5.557385775146484 0.1873837499999999 Q 5.541335775146484 0.2086499999999999 5.533712025146484 0.23553374999999993 Q 5.526088275146484 0.2624174999999999 5.526088275146484 0.2905049999999999 M 6.266807530517578 0.5786024999999999 Q 6.2114350305175785 0.5786024999999999 6.161278780517578 0.55894125 Q 6.111122530517578 0.53928 6.072602530517578 0.5011612499999999 Q 6.034082530517578 0.4630424999999999 6.012013780517578 0.4088737499999999 Q 5.989945030517578 0.35470499999999994 5.989945030517578 0.2848874999999999 Q 5.989945030517578 0.2246999999999999 6.0124150305175785 0.17333999999999994 Q 6.034885030517578 0.12197999999999992 6.074608780517578 0.0830587499999999 Q 6.114332530517578 0.04413749999999994 6.167297530517578 0.02246999999999988 Q 6.220262530517578 0.0008024999999999283 6.282055030517578 0.0008024999999999283 Q 6.359095030517578 0.0008024999999999283 6.421690030517578 0.034106249999999894 Q 6.484285030517578 0.06740999999999986 6.514780030517578 0.1251899999999999 L 6.3984175305175786 0.2142674999999999 Q 6.381565030517578 0.1805624999999999 6.3478600305175785 0.1600987499999999 Q 6.314155030517578 0.1396349999999999 6.276437530517578 0.1396349999999999 Q 6.248350030517578 0.1396349999999999 6.225077530517578 0.1508699999999999 Q 6.201805030517578 0.1621049999999999 6.184551280517578 0.18216749999999993 Q 6.167297530517578 0.2022299999999999 6.158068780517578 0.22991624999999993 Q 6.148840030517578 0.2576024999999999 6.148840030517578 0.2905049999999999 Q 6.148840030517578 0.32420999999999994 6.158470030517578 0.3514949999999999 Q 6.168100030517578 0.3787799999999999 6.185353780517578 0.3984412499999999 Q 6.202607530517578 0.41810249999999993 6.226682530517578 0.4289362499999999 Q 6.250757530517578 0.43976999999999994 6.280450030517578 0.43976999999999994 Q 6.318167530517578 0.43976999999999994 6.352675030517578 0.42091124999999996 Q 6.3871825305175784 0.4020524999999999 6.415270030517578 0.3675449999999999 L 6.415270030517578 0.5200199999999999 Q 6.351070030517578 0.5786024999999999 6.266807530517578 0.5786024999999999 M 6.407245030517578 0.3835949999999999 L 6.302117530517578 0.3835949999999999 L 6.302117530517578 0.2712449999999999 L 6.536447530517578 0.2712449999999999 L 6.536447530517578 0.5745899999999999 L 6.407245030517578 0.5745899999999999 L 6.407245030517578 0.3835949999999999 M 6.705001135253906 0.004814999999999903 L 6.806918635253906 0.23753999999999992 L 6.911243635253906 0.004814999999999903 L 7.0813736352539065 0.004814999999999903 L 6.884761135253906 0.3860024999999999 L 6.884761135253906 0.5745899999999999 L 6.729076135253906 0.5745899999999999 L 6.729076135253906 0.38439749999999995 L 6.535673635253906 0.004814999999999903 L 6.705001135253906 0.004814999999999903 M 7.547629270019531 0.579405 Q 7.4826267700195315 0.579405 7.429661770019531 0.55492875 Q 7.376696770019532 0.5304524999999999 7.338578020019531 0.4891237499999999 Q 7.300459270019531 0.44779499999999994 7.279995520019531 0.39603374999999996 Q 7.259531770019532 0.3442724999999999 7.259531770019532 0.28889999999999993 Q 7.259531770019532 0.23192249999999992 7.281199270019531 0.1805624999999999 Q 7.3028667700195316 0.1292024999999999 7.341788020019531 0.0886762499999999 Q 7.380709270019532 0.048149999999999915 7.434075520019531 0.024877499999999886 Q 7.487441770019531 0.0016049999999998565 7.550839270019531 0.0016049999999998565 Q 7.615841770019531 0.0016049999999998565 7.668806770019531 0.026081249999999945 Q 7.721771770019531 0.05055749999999992 7.7594892700195315 0.09228749999999991 Q 7.797206770019531 0.1340174999999999 7.817670520019531 0.18577874999999994 Q 7.838134270019531 0.23753999999999992 7.838134270019531 0.2921099999999999 Q 7.838134270019531 0.34828499999999996 7.816868020019531 0.3996449999999999 Q 7.795601770019531 0.45100499999999993 7.756680520019531 0.4915312499999999 Q 7.717759270019531 0.5320575 7.664794270019531 0.5557312499999999 Q 7.611829270019531 0.579405 7.547629270019531 0.579405 M 7.418426770019531 0.2905049999999999 Q 7.418426770019531 0.31939499999999993 7.426451770019531 0.3462787499999999 Q 7.434476770019531 0.37316249999999995 7.450526770019531 0.3944287499999999 Q 7.466576770019532 0.4156949999999999 7.491053020019531 0.4281337499999999 Q 7.515529270019531 0.4405724999999999 7.549234270019531 0.4405724999999999 Q 7.582939270019532 0.4405724999999999 7.607816770019531 0.42773249999999996 Q 7.632694270019531 0.4148924999999999 7.6483430200195315 0.3928237499999999 Q 7.663991770019531 0.37075499999999995 7.6716155200195315 0.34387124999999996 Q 7.679239270019531 0.3169874999999999 7.679239270019531 0.28889999999999993 Q 7.679239270019531 0.2600099999999999 7.671214270019531 0.2335274999999999 Q 7.663189270019531 0.20704499999999992 7.647139270019531 0.18577874999999994 Q 7.631089270019531 0.1645124999999999 7.606211770019531 0.15247499999999992 Q 7.581334270019531 0.14043749999999994 7.548431770019532 0.14043749999999994 Q 7.514726770019531 0.14043749999999994 7.490250520019531 0.1532774999999999 Q 7.465774270019531 0.16611749999999992 7.449724270019531 0.1873837499999999 Q 7.433674270019531 0.2086499999999999 7.4260505200195315 0.23553374999999993 Q 7.418426770019531 0.2624174999999999 7.418426770019531 0.2905049999999999 M 8.069266025390625 0.29451749999999993 L 8.069266025390625 0.5745899999999999 L 7.9127785253906255 0.5745899999999999 L 7.9127785253906255 0.004814999999999903 L 8.034758525390625 0.004814999999999903 L 8.263471025390626 0.29451749999999993 L 8.263471025390626 0.004814999999999903 L 8.419958525390625 0.004814999999999903 L 8.419958525390625 0.5745899999999999 L 8.295571025390625 0.5745899999999999 L 8.069266025390625 0.29451749999999993 M 8.525911252441407 0.5745899999999999 L 8.525911252441407 0.004814999999999903 L 8.682398752441406 0.004814999999999903 L 8.682398752441406 0.4381649999999999 L 8.940803752441406 0.4381649999999999 L 8.940803752441406 0.5745899999999999 L 8.525911252441407 0.5745899999999999 M 9.003416385498047 0.5745899999999999 L 9.003416385498047 0.004814999999999903 L 9.159903885498046 0.004814999999999903 L 9.159903885498046 0.5745899999999999 L 9.003416385498047 0.5745899999999999 M 9.422334708251952 0.29451749999999993 L 9.422334708251952 0.5745899999999999 L 9.265847208251953 0.5745899999999999 L 9.265847208251953 0.004814999999999903 L 9.387827208251952 0.004814999999999903 L 9.616539708251953 0.29451749999999993 L 9.616539708251953 0.004814999999999903 L 9.773027208251953 0.004814999999999903 L 9.773027208251953 0.5745899999999999 L 9.648639708251952 0.5745899999999999 L 9.422334708251952 0.29451749999999993 M 10.285044935302734 0.4381649999999999 L 10.285044935302734 0.5745899999999999 L 9.878979935302734 0.5745899999999999 L 9.878979935302734 0.004814999999999903 L 10.277822435302733 0.004814999999999903 L 10.277822435302733 0.14123999999999992 L 10.035467435302733 0.14123999999999992 L 10.035467435302733 0.2214899999999999 L 10.242512435302734 0.2214899999999999 L 10.242512435302734 0.34828499999999996 L 10.035467435302733 0.34828499999999996 L 10.035467435302733 0.4381649999999999 L 10.285044935302734 0.4381649999999999" fill="#382d5e" fill-rule="nonzero"></path></g><g><path d=" M 0.46725 1.1765111249999995 Q 0.46725 1.2162611249999997 0.447 1.2473861249999996 Q 0.42675 1.2785111249999996 0.392625 1.2961361249999996 Q 0.3585 1.3137611249999996 0.318 1.3137611249999996 L 0.06675 1.3137611249999996 L 0.06675 0.7812611249999997 L 0.32325 0.7812611249999997 Q 0.36075 0.7812611249999997 0.388125 0.8011361249999996 Q 0.41550000000000004 0.8210111249999996 0.43012500000000004 0.8521361249999997 Q 0.44475000000000003 0.8832611249999996 0.44475000000000003 0.9170111249999997 Q 0.44475000000000003 0.9567611249999997 0.4245 0.9905111249999996 Q 0.40425 1.0242611249999998 0.36825 1.0407611249999995 Q 0.41400000000000003 1.0542611249999996 0.440625 1.0910111249999996 Q 0.46725 1.1277611249999997 0.46725 1.1765111249999995 M 0.41475 1.1675111249999996 Q 0.41475 1.1405111249999997 0.40275 1.1176361249999998 Q 0.39075 1.0947611249999996 0.370125 1.0805111249999997 Q 0.34950000000000003 1.0662611249999996 0.32325 1.0662611249999996 L 0.11925000000000001 1.0662611249999996 L 0.11925000000000001 1.2680111249999997 L 0.318 1.2680111249999997 Q 0.34500000000000003 1.2680111249999997 0.36675 1.2537611249999996 Q 0.3885 1.2395111249999997 0.401625 1.2166361249999997 Q 0.41475 1.1937611249999995 0.41475 1.1675111249999996 M 0.11925000000000001 0.8270111249999996 L 0.11925000000000001 1.0235111249999997 L 0.30225 1.0235111249999997 Q 0.3285 1.0235111249999997 0.34875 1.0096361249999997 Q 0.369 0.9957611249999996 0.381 0.9732611249999996 Q 0.393 0.9507611249999997 0.393 0.9252611249999996 Q 0.393 0.8982611249999997 0.38175000000000003 0.8761361249999997 Q 0.3705 0.8540111249999996 0.35100000000000003 0.8405111249999997 Q 0.3315 0.8270111249999996 0.30675 0.8270111249999996 L 0.11925000000000001 0.8270111249999996 M 0.93151171875 1.2672611249999997 L 0.93151171875 1.3137611249999996 L 0.57376171875 1.3137611249999996 L 0.57376171875 0.7812611249999997 L 0.9247617187500001 0.7812611249999997 L 0.9247617187500001 0.8277611249999997 L 0.62626171875 0.8277611249999997 L 0.62626171875 1.0197611249999996 L 0.88651171875 1.0197611249999996 L 0.88651171875 1.0640111249999997 L 0.62626171875 1.0640111249999997 L 0.62626171875 1.2672611249999997 L 0.93151171875 1.2672611249999997 M 1.3462470703125002 0.8810111249999997 Q 1.3349970703125003 0.8682611249999996 1.3199970703125001 0.8581361249999997 Q 1.3049970703125 0.8480111249999996 1.2862470703125002 0.8405111249999997 Q 1.2674970703125001 0.8330111249999996 1.2461220703125 0.8285111249999997 Q 1.2247470703125 0.8240111249999996 1.2007470703125 0.8240111249999996 Q 1.1309970703125 0.8240111249999996 1.0983720703125002 0.8506361249999996 Q 1.0657470703125 0.8772611249999996 1.0657470703125 0.9230111249999997 Q 1.0657470703125 0.9545111249999996 1.0811220703125002 0.9725111249999996 Q 1.0964970703125 0.9905111249999996 1.1294970703125 1.0017611249999996 Q 1.1624970703125002 1.0130111249999996 1.2134970703125 1.0250111249999996 Q 1.2704970703125 1.0370111249999996 1.3117470703125003 1.0535111249999995 Q 1.3529970703125 1.0700111249999997 1.3754970703125 1.0981361249999997 Q 1.3979970703125002 1.1262611249999996 1.3979970703125002 1.1742611249999997 Q 1.3979970703125002 1.2110111249999997 1.3837470703125 1.2380111249999997 Q 1.3694970703125002 1.2650111249999996 1.3439970703125002 1.2830111249999996 Q 1.3184970703125 1.3010111249999996 1.2832470703125 1.3096361249999997 Q 1.2479970703125 1.3182611249999996 1.2059970703125003 1.3182611249999996 Q 1.1647470703125 1.3182611249999996 1.1268720703125001 1.3096361249999997 Q 1.0889970703125 1.3010111249999996 1.0552470703125 1.2841361249999996 Q 1.0214970703125001 1.2672611249999997 0.9922470703125001 1.2410111249999995 L 1.0184970703125 1.1982611249999997 Q 1.0327470703125001 1.2132611249999996 1.0526220703125002 1.2263861249999997 Q 1.0724970703125 1.2395111249999997 1.0968720703125001 1.2500111249999997 Q 1.1212470703125001 1.2605111249999996 1.1493720703125 1.2661361249999996 Q 1.1774970703125 1.2717611249999996 1.2074970703125 1.2717611249999996 Q 1.2712470703125 1.2717611249999996 1.3068720703125 1.2485111249999996 Q 1.3424970703125 1.2252611249999996 1.3424970703125 1.1795111249999997 Q 1.3424970703125 1.1465111249999995 1.3244970703125 1.1266361249999997 Q 1.3064970703125 1.1067611249999996 1.2704970703125 1.0940111249999998 Q 1.2344970703125 1.0812611249999997 1.1819970703125002 1.0692611249999997 Q 1.1264970703125001 1.0565111249999997 1.0882470703125002 1.0407611249999995 Q 1.0499970703125001 1.0250111249999996 1.0308720703125 0.9991361249999997 Q 1.0117470703125002 0.9732611249999996 1.0117470703125002 0.9305111249999996 Q 1.0117470703125002 0.8810111249999997 1.0361220703125 0.8468861249999997 Q 1.0604970703125 0.8127611249999996 1.1032470703125001 0.7951361249999996 Q 1.1459970703125002 0.7775111249999996 1.2014970703125 0.7775111249999996 Q 1.2367470703125 0.7775111249999996 1.2671220703125001 0.7846361249999997 Q 1.2974970703125002 0.7917611249999996 1.3233720703125003 0.8052611249999996 Q 1.3492470703125001 0.8187611249999996 1.3717470703125 0.8390111249999996 L 1.3462470703125002 0.8810111249999997 M 1.8750106201171877 0.8277611249999997 L 1.6852606201171878 0.8277611249999997 L 1.6852606201171878 1.3137611249999996 L 1.6327606201171876 1.3137611249999996 L 1.6327606201171876 0.8277611249999997 L 1.4430106201171877 0.8277611249999997 L 1.4430106201171877 0.7812611249999997 L 1.8750106201171877 0.7812611249999997 L 1.8750106201171877 0.8277611249999997 M 2.191509521484375 0.8780111249999996 L 2.191509521484375 1.3137611249999996 L 2.139009521484375 1.3137611249999996 L 2.139009521484375 0.7812611249999997 L 2.1825095214843753 0.7812611249999997 L 2.532009521484375 1.2252611249999996 L 2.532009521484375 0.7820111249999996 L 2.584509521484375 0.7820111249999996 L 2.584509521484375 1.3137611249999996 L 2.5357595214843753 1.3137611249999996 L 2.191509521484375 0.8780111249999996 M 2.890489013671875 0.7812611249999997 L 2.9347390136718747 0.7812611249999997 L 3.155989013671875 1.3137611249999996 L 3.100489013671875 1.3137611249999996 L 3.031489013671875 1.1472611249999995 L 2.792239013671875 1.1472611249999995 L 2.7239890136718747 1.3137611249999996 L 2.667739013671875 1.3137611249999996 L 2.890489013671875 0.7812611249999997 M 3.019489013671875 1.1060111249999995 L 2.9122390136718748 0.8427611249999996 L 2.803489013671875 1.1060111249999995 L 3.019489013671875 1.1060111249999995 M 3.240008056640625 1.3137611249999996 L 3.240008056640625 0.7812611249999997 L 3.4207580566406253 0.7812611249999997 Q 3.5055080566406254 0.7812611249999997 3.5621330566406253 0.8168861249999997 Q 3.618758056640625 0.8525111249999997 3.6472580566406254 0.9128861249999997 Q 3.675758056640625 0.9732611249999996 3.675758056640625 1.0467611249999997 Q 3.675758056640625 1.1277611249999997 3.6446330566406253 1.1877611249999998 Q 3.613508056640625 1.2477611249999996 3.556133056640625 1.2807611249999997 Q 3.498758056640625 1.3137611249999996 3.4207580566406253 1.3137611249999996 L 3.240008056640625 1.3137611249999996 M 3.6232580566406254 1.0467611249999997 Q 3.6232580566406254 0.9830111249999997 3.5996330566406254 0.9335111249999997 Q 3.5760080566406254 0.8840111249999996 3.5310080566406254 0.8558861249999996 Q 3.486008056640625 0.8277611249999997 3.4207580566406253 0.8277611249999997 L 3.2925080566406253 0.8277611249999997 L 3.2925080566406253 1.2672611249999997 L 3.4207580566406253 1.2672611249999997 Q 3.486758056640625 1.2672611249999997 3.531758056640625 1.2380111249999997 Q 3.5767580566406254 1.2087611249999997 3.6000080566406254 1.1588861249999995 Q 3.6232580566406254 1.1090111249999997 3.6232580566406254 1.0467611249999997 M 3.783778198242188 1.3137611249999996 L 3.783778198242188 0.7812611249999997 L 3.836278198242188 0.7812611249999997 L 3.836278198242188 1.3137611249999996 L 3.783778198242188 1.3137611249999996 M 4.176021240234375 1.3137611249999996 L 4.176021240234375 0.7812611249999997 L 4.401021240234376 0.7812611249999997 Q 4.435521240234375 0.7812611249999997 4.464021240234375 0.7955111249999997 Q 4.4925212402343755 0.8097611249999996 4.513896240234375 0.8341361249999997 Q 4.535271240234375 0.8585111249999997 4.546896240234375 0.8881361249999996 Q 4.558521240234375 0.9177611249999996 4.558521240234375 0.9485111249999996 Q 4.558521240234375 0.9867611249999997 4.543896240234375 1.0205111249999996 Q 4.529271240234375 1.0542611249999996 4.502646240234375 1.0775111249999996 Q 4.476021240234375 1.1007611249999996 4.440021240234375 1.1082611249999996 L 4.570521240234375 1.3137611249999996 L 4.511271240234375 1.3137611249999996 L 4.386021240234375 1.1172611249999997 L 4.228521240234375 1.1172611249999997 L 4.228521240234375 1.3137611249999996 L 4.176021240234375 1.3137611249999996 M 4.228521240234375 1.0707611249999998 L 4.402521240234375 1.0707611249999998 Q 4.434021240234375 1.0707611249999998 4.457271240234375 1.0535111249999995 Q 4.480521240234375 1.0362611249999996 4.4932712402343755 1.0081361249999996 Q 4.506021240234375 0.9800111249999996 4.506021240234375 0.9485111249999996 Q 4.506021240234375 0.9162611249999997 4.4913962402343754 0.8888861249999996 Q 4.476771240234375 0.8615111249999996 4.452396240234375 0.8446361249999996 Q 4.428021240234375 0.8277611249999997 4.3980212402343755 0.8277611249999997 L 4.228521240234375 0.8277611249999997 L 4.228521240234375 1.0707611249999998 M 5.031032592773438 1.2672611249999997 L 5.031032592773438 1.3137611249999996 L 4.673282592773438 1.3137611249999996 L 4.673282592773438 0.7812611249999997 L 5.024282592773438 0.7812611249999997 L 5.024282592773438 0.8277611249999997 L 4.725782592773438 0.8277611249999997 L 4.725782592773438 1.0197611249999996 L 4.986032592773438 1.0197611249999996 L 4.986032592773438 1.0640111249999997 L 4.725782592773438 1.0640111249999997 L 4.725782592773438 1.2672611249999997 L 5.031032592773438 1.2672611249999997 M 5.302539184570313 0.7812611249999997 L 5.346789184570313 0.7812611249999997 L 5.568039184570313 1.3137611249999996 L 5.512539184570313 1.3137611249999996 L 5.443539184570313 1.1472611249999995 L 5.204289184570313 1.1472611249999995 L 5.136039184570313 1.3137611249999996 L 5.079789184570314 1.3137611249999996 L 5.302539184570313 0.7812611249999997 M 5.431539184570314 1.1060111249999995 L 5.324289184570313 0.8427611249999996 L 5.215539184570313 1.1060111249999995 L 5.431539184570314 1.1060111249999995 M 5.652058227539063 1.3137611249999996 L 5.652058227539063 0.7812611249999997 L 5.832808227539063 0.7812611249999997 Q 5.917558227539064 0.7812611249999997 5.974183227539063 0.8168861249999997 Q 6.0308082275390635 0.8525111249999997 6.059308227539064 0.9128861249999997 Q 6.087808227539064 0.9732611249999996 6.087808227539064 1.0467611249999997 Q 6.087808227539064 1.1277611249999997 6.056683227539064 1.1877611249999998 Q 6.025558227539063 1.2477611249999996 5.968183227539064 1.2807611249999997 Q 5.910808227539063 1.3137611249999996 5.832808227539063 1.3137611249999996 L 5.652058227539063 1.3137611249999996 M 6.035308227539064 1.0467611249999997 Q 6.035308227539064 0.9830111249999997 6.011683227539064 0.9335111249999997 Q 5.988058227539064 0.8840111249999996 5.943058227539064 0.8558861249999996 Q 5.898058227539064 0.8277611249999997 5.832808227539063 0.8277611249999997 L 5.704558227539064 0.8277611249999997 L 5.704558227539064 1.2672611249999997 L 5.832808227539063 1.2672611249999997 Q 5.898808227539064 1.2672611249999997 5.943808227539064 1.2380111249999997 Q 5.988808227539064 1.2087611249999997 6.012058227539064 1.1588861249999995 Q 6.035308227539064 1.1090111249999997 6.035308227539064 1.0467611249999997 M 6.553578369140626 1.2672611249999997 L 6.553578369140626 1.3137611249999996 L 6.195828369140626 1.3137611249999996 L 6.195828369140626 0.7812611249999997 L 6.546828369140626 0.7812611249999997 L 6.546828369140626 0.8277611249999997 L 6.248328369140626 0.8277611249999997 L 6.248328369140626 1.0197611249999996 L 6.5085783691406265 1.0197611249999996 L 6.5085783691406265 1.0640111249999997 L 6.248328369140626 1.0640111249999997 L 6.248328369140626 1.2672611249999997 L 6.553578369140626 1.2672611249999997 M 6.6600849609375015 1.3137611249999996 L 6.6600849609375015 0.7812611249999997 L 6.885084960937502 0.7812611249999997 Q 6.9195849609375015 0.7812611249999997 6.948084960937502 0.7955111249999997 Q 6.976584960937502 0.8097611249999996 6.997959960937502 0.8341361249999997 Q 7.019334960937502 0.8585111249999997 7.030959960937501 0.8881361249999996 Q 7.042584960937502 0.9177611249999996 7.042584960937502 0.9485111249999996 Q 7.042584960937502 0.9867611249999997 7.027959960937501 1.0205111249999996 Q 7.0133349609375015 1.0542611249999996 6.986709960937501 1.0775111249999996 Q 6.960084960937501 1.1007611249999996 6.924084960937502 1.1082611249999996 L 7.054584960937501 1.3137611249999996 L 6.995334960937502 1.3137611249999996 L 6.870084960937501 1.1172611249999997 L 6.712584960937502 1.1172611249999997 L 6.712584960937502 1.3137611249999996 L 6.6600849609375015 1.3137611249999996 M 6.712584960937502 1.0707611249999998 L 6.886584960937501 1.0707611249999998 Q 6.9180849609375015 1.0707611249999998 6.9413349609375015 1.0535111249999995 Q 6.9645849609375015 1.0362611249999996 6.977334960937502 1.0081361249999996 Q 6.9900849609375015 0.9800111249999996 6.9900849609375015 0.9485111249999996 Q 6.9900849609375015 0.9162611249999997 6.975459960937502 0.8888861249999996 Q 6.960834960937501 0.8615111249999996 6.936459960937501 0.8446361249999996 Q 6.912084960937501 0.8277611249999997 6.882084960937502 0.8277611249999997 L 6.712584960937502 0.8277611249999997 L 6.712584960937502 1.0707611249999998" fill="#c84449" fill-rule="nonzero"></path></g><g clip-path="url(#SvgjsClipPath1001)"><g clip-path="url(#b0271abf2-6122-46c1-9127-f474fbd70d34d7107f41-fd50-4438-b249-87fcb4168e01)"><path d=" M -1.530973113270098 0.008706228821739659 C -1.3046868197146035 -0.014050747907990546 -1.1650843681057599 0.049925481683615214 -1.0649240518701362 0.15334384664844114 C -1.0707490480829525 -0.03512933589843481 -1.3774499080001181 -0.05265368891156763 -1.530973113270098 0.008706228821739659" fill="#000000" transform="matrix(1,0,0,1,0,0)" fill-rule="nonzero"></path></g><g clip-path="url(#b0271abf2-6122-46c1-9127-f474fbd70d34d7107f41-fd50-4438-b249-87fcb4168e01)"><path d=" M -1.2577906637639664 0.2818886783278711 C -1.1949004504154281 0.29778400697640284 -1.1644919956095414 0.24639569292944152 -1.1291964677098516 0.2818886783278711 C -1.1418831120038662 0.14297732796461582 -1.4257776308166168 0.10921209568015722 -1.5149296914975117 0.15329448227375608 C -1.4050939578236514 0.14524808920012044 -1.3183113871276309 0.16030422347900908 -1.2577906637639664 0.20152347634088486 C -1.2595184168779374 0.24150861983563843 -1.2879029323217441 0.25128276602324484 -1.2577906637639664 0.2818886783278711" fill="#000000" transform="matrix(1,0,0,1,0,0)" fill-rule="nonzero"></path></g><g clip-path="url(#b0271abf2-6122-46c1-9127-f474fbd70d34d7107f41-fd50-4438-b249-87fcb4168e01)"><path d=" M -2.0760051741658696 -1.0257736070746273 C -2.0738825060544195 -0.9771496980100194 -2.062281878003472 -0.9308952789302859 -2.0051179321183805 -0.9179124483881622 C -1.9516069499599693 -0.9057194478409966 -1.8873345341202543 -0.9373620120140054 -1.86625594612981 -0.9880098604406933 C -1.854655318078863 -1.0158513677629661 -1.8602334924182544 -1.0526771912778874 -1.8606777717904184 -1.0818021723419673 C -1.8612701442866368 -1.1194178258518466 -1.8842739428897914 -1.1498262806577333 -1.910338332723409 -1.174804654248283 C -1.9099434177259296 -1.174409739250804 -1.9096965958525054 -1.173570544881161 -1.909449773979081 -1.1724351642634088 C -1.9096965958525054 -1.173619909255846 -1.9099434177259296 -1.1747552898735982 -1.910338332723409 -1.174804654248283 C -1.9893706965939033 -1.1895152379043776 -2.0755608947937056 -1.1593042405972305 -2.0763507247886634 -1.067733325556776 L -2.0764000891633483 -1.0600324831059347 C -2.0794113160191263 -1.05988438998188 -2.079904959765975 -1.0224168295960554 -2.0760051741658696 -1.0257736070746273 M -1.8639358205196206 -1.0394475388623392 C -1.8636889986461962 -1.0385096157433265 -1.8631953548993472 -1.0377197857483684 -1.862948533025923 -1.0367818626293557 C -1.8588512899270777 -1.0207878052314543 -1.8650218367626878 -1.0081998896868096 -1.8639358205196206 -1.0394475388623392 M -1.9091535877309715 -1.1685353786633033 L -1.9091535877309715 -1.1693745730329461 L -1.9091535877309715 -1.1685353786633033 M -1.910338332723409 -1.1098411371629797 C -1.8922216072140576 -1.0925142416485865 -1.8768692866870595 -1.0732127711467978 -1.8677862417450413 -1.0501596081689586 C -1.8711239204167778 -1.0423934252293843 -1.875401164227938 -1.0350657439715052 -1.8805222504137404 -1.0283405545582411 C -1.9074751989916858 -0.9929462979091814 -1.9573332174234157 -0.9763105036403765 -2.0003789521486315 -0.9820367711038227 C -2.021260082640336 -0.984801176086176 -2.0398704518965367 -0.9952664235193708 -2.0538899343070427 -1.0107668371704235 C -2.0607033516191997 -1.018879455761959 -2.0660188276372278 -1.0281397504600327 -2.069587805456835 -1.0381147007458473 C -2.0700814492036836 -1.0392500813635999 -2.0702295423277386 -1.0404841907307218 -2.0705750929505324 -1.041668935723159 C -2.0496939624588277 -1.1086070277958577 -1.9712046067098672 -1.1211949433405022 -1.910338332723409 -1.1098411371629797" fill="#000000" transform="matrix(1,0,0,1,0,0)" fill-rule="nonzero"></path></g><g clip-path="url(#b0271abf2-6122-46c1-9127-f474fbd70d34d7107f41-fd50-4438-b249-87fcb4168e01)"><path d=" M -2.1564691049022255 -0.5505427719832776 C -2.1287263263293226 -0.856206980032061 -1.6436719806756814 -0.8916506010558055 -1.4554456200022297 -0.7294886302159713 C -1.46586150306074 -0.7384729464086197 -1.4444867288221865 -0.7850235517364625 -1.4554456200022297 -0.7944521473012748 C -1.6436719806756814 -0.956614118141109 -2.1287263263293226 -0.9211704971173644 -2.1564691049022255 -0.6155062890685811 C -2.1584436798896207 -0.5939834217059728 -2.154543894289515 -0.5719669105965159 -2.1564691049022255 -0.5505427719832776" fill="#000000" transform="matrix(1,0,0,1,0,0)" fill-rule="nonzero"></path></g><g clip-path="url(#b0271abf2-6122-46c1-9127-f474fbd70d34d7107f41-fd50-4438-b249-87fcb4168e01)"><path d=" M -2.1564691049022255 -0.38650495490541825 C -2.120136925134153 -0.5442241320236132 -1.9407467875292954 -0.6143709084508291 -1.7999595909280146 -0.6483829626087121 C -1.6260488989131787 -0.690342681090861 -1.4126467071504378 -0.6778534942955861 -1.2764997617695366 -0.5505921363579628 C -1.2870143735774162 -0.5604156469202541 -1.2653927774654377 -0.6051891347594412 -1.2764997617695366 -0.6155556534432663 C -1.4088456502997024 -0.7392627764035781 -1.6012679828213685 -0.7479015419734323 -1.7713282536107835 -0.7192208402815166 C -1.919865657037591 -0.6941437379415969 -2.1188040870176614 -0.6149632809470477 -2.1564691049022255 -0.4514684719907218 C -2.161208084871974 -0.4308341633724415 -2.151779489307162 -0.4069418060249591 -2.1564691049022255 -0.38650495490541825" fill="#000000" transform="matrix(1,0,0,1,0,0)" fill-rule="nonzero"></path></g><g clip-path="url(#b0271abf2-6122-46c1-9127-f474fbd70d34d7107f41-fd50-4438-b249-87fcb4168e01)"><path d=" M -2.574091714736319 -0.2671912612920605 C -2.5717715891261297 -0.26738871879079995 -2.575424552852811 -0.3320560496279942 -2.574091714736319 -0.33215477837736396 C -2.8126203732136643 -0.31216220662998717 -3.0373763711539277 -0.22927942153407177 -3.125985423713289 0.010878261307874393 C -3.133044529293227 0.03013036743497799 -3.118975682508036 0.056984587263553266 -3.125985423713289 0.07584177839317796 C -3.0373763711539277 -0.16431590444876853 -2.8126203732136643 -0.2471986895446836 -2.574091714736319 -0.2671912612920605" fill="#000000" transform="matrix(1,0,0,1,0,0)" fill-rule="nonzero"></path></g><g clip-path="url(#b0271abf2-6122-46c1-9127-f474fbd70d34d7107f41-fd50-4438-b249-87fcb4168e01)"><path d=" M -1.9477565287345486 0.5221944542938721 C -1.9427213625166906 0.7014364987746753 -2.053791205557673 0.8644870283588373 -2.1907773453082178 0.9684484014451964 C -2.242560574352658 1.0077918080690471 -2.5879631040227706 1.1603770902200143 -2.6550986535942087 1.109383691170532 C -2.614323680104497 1.0151470998970942 -2.480299402835045 0.9853310175874259 -2.45546912236855 0.8755940126629354 C -2.4453987899328347 0.831067346697173 -2.453840098003949 0.7630926027560916 -2.471364451017082 0.7233049167600776 C -2.51786569197024 0.6177145193091167 -2.7199140775554578 0.6484685247377979 -2.8083256726160797 0.6469382291225663 C -2.9498533348376337 0.6444700103883225 -3.080422105879144 0.6010293606656272 -3.100414677626521 0.4464201391525797 C -3.0955276045327174 0.338460251716745 -3.0831865108614975 0.24027451046851644 -3.11102801818377 0.13024131929591665 C -3.127663812452575 0.06458670096502495 -3.305079375070038 0.05787314600788118 -3.3543450210055488 0.05041912543046401 C -3.430909166141799 0.03891722612888682 -3.4934538288675436 0.011668091302832417 -3.51152119000221 -0.06252656384854371 C -3.475978840229096 -0.2550476251195799 -3.2362160723846283 -0.38517211678892627 -3.073659186547315 -0.4467294920209729 C -2.8044258870159737 -0.548716290119937 -2.562589815434742 -0.44593966202601487 -2.320506921980085 -0.3268234259113969 C -2.3287014081777757 -0.3308219402608723 -2.311571970162122 -0.38739351364974595 -2.320506921980085 -0.39178694299670036 C -2.4959972739848375 -0.4781252343205572 -2.6649221641565 -0.5617978494114305 -2.865835169123966 -0.5558741244492448 C -3.051692039812543 -0.5503453144845382 -3.2368578092555316 -0.45368986885154106 -3.37478187212509 -0.33462299711160803 C -3.440189668582557 -0.27810078809741934 -3.502783695682986 -0.17660763374530375 -3.51576652622511 -0.08375324496304248 C -3.5158158905997947 -0.0842468887098915 -3.5160133480985345 -0.0846418037073704 -3.516062712473219 -0.08513544745421919 L -3.516062712473219 -0.08177866997564731 C -3.527564611774796 0.0051026294697431585 -3.4951815819815146 0.08408562896555294 -3.3798664027176324 0.11079175567007371 C -3.319000128731174 0.12490996682994959 -3.2566529235041695 0.12742754993887861 -3.196132200140505 0.14426080170642308 C -3.0719314334333445 0.17891459273520938 -3.092861928299734 0.29788273572577273 -3.1016981513683275 0.4066818175312503 C -3.1064864957127614 0.46572160965436815 -3.103722090730408 0.5275258067598394 -3.0827915958640184 0.5828632707815908 C -2.987123437724719 0.8358556910416064 -2.526010813793245 0.5841961088980827 -2.460603017335778 0.8225273098766881 C -2.4930354115037447 0.9366577441481334 -2.6607261923082857 0.9619323039867924 -2.6661562735236224 1.0905758644155925 C -2.6661562735236224 1.0902303137927982 -2.666304366647677 1.0900328562940584 -2.6663537310223617 1.0896873056712646 L -2.6663537310223617 1.092599803777672 C -2.6663537310223617 1.0931428118992061 -2.6665018241464162 1.09358709127137 -2.6665018241464162 1.0941300993929037 C -2.6668473747692105 1.1138758492668563 -2.66714356101732 1.1337696922648635 -2.666452459771732 1.1535154421388156 L -2.6663537310223617 1.15386099276161 L -2.6663537310223617 1.1546508227565677 L -2.666255002272992 1.154157179009719 C -2.662552674171626 1.2119628617657143 -2.471611272890506 1.1577114139870301 -2.4264428700538403 1.1458145996879743 C -2.2371304931373213 1.0957591237575046 -2.075462166044336 0.9689914095667305 -1.9926781096977904 0.7912302963264737 C -1.9442516581319222 0.6871208301160596 -1.9444491156306616 0.571608193353438 -1.9475590712358093 0.459551062818758 C -1.94716415623833 0.47485401897107127 -1.9482995368560823 0.5025967975439742 -1.9477565287345486 0.5221944542938721" fill="#000000" transform="matrix(1,0,0,1,0,0)" fill-rule="nonzero"></path></g><g clip-path="url(#b0271abf2-6122-46c1-9127-f474fbd70d34d7107f41-fd50-4438-b249-87fcb4168e01)"><path d=" M -3.2558137291345264 -0.21214998351841818 C -3.2963912451254984 -0.1804086905960397 -3.3063134844371596 -0.1285267328022297 -3.3072020431814875 -0.07995218811230687 C -3.3075640515630624 -0.05744260156449865 -3.3074817615809984 -0.03492806247185554 -3.306955221308063 -0.012421723543397434 C -3.3067577638093235 -0.002845034854522588 -3.3058198406903108 0.006632925084974595 -3.304931281945983 0.016209613773841447 C -3.3050793750700374 0.014580589409240341 -3.2556162716357866 -0.013557104161141753 -3.2506798341672987 -0.017111339138453197 C -3.1889743658111973 -0.06119372573205206 -3.1453856229644472 -0.1261572428173554 -3.111077382558455 -0.19260169114320536 C -3.1109292894344005 -0.19260169114320536 -3.110830560685031 -0.19304597051536931 -3.110731831935661 -0.19373707176095767 C -3.1071282325836647 -0.2017834648345932 -3.108658528198896 -0.21244616976652742 -3.110633103186291 -0.22330633219720142 C -3.11102801818377 -0.24009021959006083 -3.111571026305304 -0.257515843853824 -3.111077382558455 -0.2575652082285087 C -3.162465696605416 -0.25396160887651253 -3.214298290024541 -0.24463174206106997 -3.2558137291345264 -0.21214998351841818 M -3.204030500090086 -0.12294855846283825 C -3.22431739321551 -0.10204728705726884 -3.2469246191742327 -0.08353089246250511 -3.271412871534949 -0.0677591875651411 C -3.2822394752742885 -0.06083207971727478 -3.293428203370409 -0.05448795553906205 -3.3049312819459824 -0.04875390331146234 C -3.3040920875763398 -0.04919818268362586 -3.300291030725604 -0.07595367376283146 -3.299501200730646 -0.07901426499329411 C -3.2814338395959797 -0.14881549079771594 -3.2171120593815794 -0.17705191311746793 -3.152247271045646 -0.18781334679877182 C -3.1677171234828547 -0.16482058295923396 -3.1850355512774304 -0.14312714718986075 -3.2040305000900866 -0.12294855846283759" fill="#000000" transform="matrix(1,0,0,1,0,0)" fill-rule="nonzero"></path></g><g clip-path="url(#b0271abf2-6122-46c1-9127-f474fbd70d34d7107f41-fd50-4438-b249-87fcb4168e01)"><path d=" M -2.439820615593443 1.0304500560494072 C -2.2911844834172657 0.9874536856988756 -2.1647129554746005 0.895932135033106 -2.110757693944026 0.7469010878594504 C -2.08400220286482 0.6730026189561835 -2.08824753908772 0.5806912382954561 -2.0967875759082046 0.5031398056655081 C -2.0944674502980147 0.5244652155293767 -2.0991570658930785 0.5466791841375729 -2.0967875759082046 0.5681033227508117 C -2.0745736073000076 0.769559335839811 -2.2684275066875355 0.9159247067804832 -2.439820615593443 0.9654865389641036 C -2.4460405268037375 0.9672636564527595 -2.4344892631274755 1.028919760434176 -2.439820615593443 1.0304500560494072" fill="#000000" transform="matrix(1,0,0,1,0,0)" fill-rule="nonzero"></path></g><g clip-path="url(#b0271abf2-6122-46c1-9127-f474fbd70d34d7107f41-fd50-4438-b249-87fcb4168e01)"><path d=" M -1.0975045391621578 2.4271656733834313 C -1.4552975268781756 2.310468291628373 -1.6758081885955391 2.057229049494933 -1.7239384539132978 1.681368700644249 C -1.7212234133056297 1.7026447461334324 -1.7266534945209664 1.7250068078656835 -1.7239384539132978 1.7463322177295522 C -1.6758081885955391 2.122192566580237 -1.4552975268781756 2.3754318087136763 -1.0975045391621578 2.4921291904687344 C -1.1034282641243434 2.490203979856025 -1.0906922554556444 2.4293870702442515 -1.0975045391621578 2.4271656733834313" fill="#000000" transform="matrix(1,0,0,1,0,0)" fill-rule="nonzero"></path></g><g clip-path="url(#b0271abf2-6122-46c1-9127-f474fbd70d34d7107f41-fd50-4438-b249-87fcb4168e01)"><path d=" M -0.1924580936895488 1.4465917346429544 C -0.31266034604723414 1.1585506083566737 -0.6439446645574711 1.1485296402956429 -0.8637148606545608 1.3276235916523909 C -0.9872245261161336 1.4282281872601785 -1.0142762034434485 1.587823210616399 -0.9938887166985926 1.7369529865394246 C -0.9632334400192812 1.9611659763581544 -0.6768213380976014 1.9680769888140375 -0.5456108301851876 1.8358298290332413 C -0.5345532102557744 1.824673480354458 -0.5562241707424374 1.7815290168798723 -0.5456108301851876 1.7708663119479382 C -0.6941975979866797 1.9206378247418672 -1.026814754613408 1.873346753793751 -0.9930988867036343 1.6121104829613604 C -0.9567173425608773 1.330634818508169 -0.5654059444338251 1.1847630913143454 -0.33946520150112436 1.3260932960371596 C -0.10942721546957923 1.469990448243588 -0.10700836111001966 1.7937220174270376 -0.24567288959985056 1.9963134111337897 C -0.35353404828631607 2.1538844951279295 -0.5439818058205872 2.234842069611135 -0.7270742715268104 2.2607090019460125 C -1.1682930524602773 2.322957478423647 -1.608129630902567 2.000015739235155 -1.452286300022398 1.522267321034877 C -1.3706869886682895 1.272138034506585 -1.130134390828864 1.1046940755754682 -0.9725633068347239 0.9051139087244942 C -0.8404148758032974 0.7378180429174324 -0.7830534724194651 0.5383366048158282 -0.7815231768042343 0.32760008928607065 C -0.7797954236902633 0.08023520774013226 -0.8527066050998324 -0.15587459637765422 -1.0166950578030076 -0.3444465076738996 C -1.244758468847158 -0.6067687947493572 -1.5950974359857586 -0.6395961039148033 -1.9028843121459917 -0.5111006366100577 C -1.9109800695943124 -0.5076944947568008 -1.8956277490673143 -0.4491483463805318 -1.9028843121459917 -0.4461371195247542 C -1.4211867439709227 -0.6472475819909597 -0.9556313263178096 -0.3967233804651883 -0.8153377734633778 0.09805574700137432 C -0.7406494745651533 0.3613159571958451 -0.8116848097366969 0.6257609123827523 -0.9725633068347239 0.840150391639191 C -1.1303318483276037 1.050541356546154 -1.35582831188814 1.2042620193148734 -1.452286300022398 1.4573038039495738 C -1.5049087234364809 1.5953759599431858 -1.5047112659377415 1.7868110049711545 -1.4672930699266016 1.92977023405857 C -1.4194096264822669 2.113010792888848 -1.261937271237496 2.235434442107353 -1.0896062392125767 2.2939805904836224 C -0.7326524458662025 2.4152688590843754 -0.26270359886613415 2.2613013744422314 -0.1596801488987878 1.8725569237987927 C -0.12339733350540039 1.7356695127976176 -0.13894711153113803 1.574840380074275 -0.1924580936895488 1.4465917346429544" fill="#000000" transform="matrix(1,0,0,1,0,0)" fill-rule="nonzero"></path></g><g clip-path="url(#b0271abf2-6122-46c1-9127-f474fbd70d34d7107f41-fd50-4438-b249-87fcb4168e01)"><path d=" M -1.6166203033483666 1.2797401482080561 C -1.620964368320636 1.1997204968438642 -1.618051870214228 1.1054345411957411 -1.6271349151562464 1.024180780464427 C -1.6284183888980532 1.1091862336717926 -1.6357736807261003 1.1988319380995363 -1.6166203033483666 1.2797401482080561" fill="#000000" transform="matrix(1,0,0,1,0,0)" fill-rule="nonzero"></path></g><g clip-path="url(#b0271abf2-6122-46c1-9127-f474fbd70d34d7107f41-fd50-4438-b249-87fcb4168e01)"><path d=" M -1.5897167191451063 1.3532437021138446 C -1.601784606448702 1.3300083433293206 -1.6108260628650646 1.3053226788384074 -1.6166203033483666 1.279789512582741 C -1.6136090764925886 1.3363117215969302 -1.606895521535445 1.3857254606564962 -1.5897167191451063 1.4182072191991482 C -1.5985529422137 1.401522060555658 -1.580683038577773 1.3703731401294978 -1.5897167191451063 1.3532437021138446" fill="#000000" transform="matrix(1,0,0,1,0,0)" fill-rule="nonzero"></path></g><g clip-path="url(#b0271abf2-6122-46c1-9127-f474fbd70d34d7107f41-fd50-4438-b249-87fcb4168e01)"><path d=" M -1.6493488837644426 1.3681517432686785 C -1.8456710018862146 1.3597104351975637 -2.0523102743171266 0.876137020784469 -1.7984786596874682 0.8365467922871945 C -1.6780789498310433 0.8177389655322549 -1.6401671100730548 0.9074833987093689 -1.627134915156246 1.0241807804644274 C -1.626789364533452 1.0008807956131636 -1.6268880932828216 0.9778276326353239 -1.6281222026499438 0.9554655709030733 C -1.6316764376272552 0.8925753575545345 -1.6452022762909126 0.8275131117198613 -1.698910715948063 0.7890088994656541 C -1.7588884311901936 0.7460125291151227 -1.8502618887319084 0.7713858177031518 -1.8888648297354855 0.8282042129654499 C -1.931762471336647 0.8914893413114673 -1.9203099364097544 1.0059653262057064 -1.9114737133411608 1.0789752363646452 C -1.895232834069835 1.212900784884728 -1.8083515346244443 1.4262536122727834 -1.6493488837644426 1.433115260353982 C -1.6497931631366065 1.433115260353982 -1.6479173168985812 1.3682011076433633 -1.6493488837644426 1.3681517432686785" fill="#000000" transform="matrix(1,0,0,1,0,0)" fill-rule="nonzero"></path></g></g></g><defs><clipPath id="SvgjsClipPath1001"><path d=" M -3.518234744959354 -1.178368065468735 h 3.3782347449593537 v 3.6704972559374696 h -3.3782347449593537 Z"></path></clipPath><clipPath id="b0271abf2-6122-46c1-9127-f474fbd70d34d7107f41-fd50-4438-b249-87fcb4168e01"><path d=" M -3.567599119644235 -1.2277232639104763 L -0.0906687530893242 -1.2277232639104763 L -0.0906687530893242 2.5414935651536155 L -3.567599119644235 2.5414935651536155 Z"></path></clipPath></defs></svg>